<svg id="Layer_1" data-name="Layer 1" xmlns="http://www.w3.org/2000/svg" viewBox="0 0 809.61 127.93"><defs><style>.cls-1{fill:#333;}.cls-2{fill:#e2e2e2;}.cls-3{fill:#bababa;}.cls-4{fill:#fff;}</style></defs><title>new</title><path class="cls-1" d="M154.78,484.35h11.77v24l22.12-24h15.45l-23.49,24,24.7,34.32H190L172.31,517.2l-5.76,5.95v19.5H154.78Z" transform="translate(-134.99 -484.35)"/><path class="cls-1" d="M317.17,484.35H330.7L351,542.65H338l-3.77-12H313.12l-3.88,12H296.73Zm-.79,36.27H331l-7.23-22.94Z" transform="translate(-134.99 -484.35)"/><path class="cls-1" d="M482.74,484.35v10.33H465.61v48h-12v-48h-17.2V484.35Z" transform="translate(-134.99 -484.35)"/><path class="cls-1" d="M589,484.35h13.53l20.26,58.3h-13l-3.78-12H585l-3.89,12H568.57Zm-.79,36.27h14.66l-7.23-22.94Z" transform="translate(-134.99 -484.35)"/><path class="cls-1" d="M718.66,484.35H731.2L753.92,525V484.35h11.15v58.3h-12L729.8,501.29v41.36H718.66Z" transform="translate(-134.99 -484.35)"/><path class="cls-1" d="M881.43,484.35H895l20.25,58.3h-13l-3.78-12H877.39l-3.88,12H861Zm-.79,36.27h14.67l-7.24-22.94Z" transform="translate(-134.99 -484.35)"/><path class="cls-1" d="M361.43,563.55a.86.86,0,0,0-.13-.2h-5.37v31.19h3.84a3,3,0,0,0,.27-.23,2.72,2.72,0,0,0,.74-1.12.37.37,0,0,0,.05-.11,3.25,3.25,0,0,0,.14-1.27l-.1-.64-.06-.37h-1.13V567.09h1.94a4.54,4.54,0,0,1,.09-.51l.14-.56,0-.16.06-.31a3.31,3.31,0,0,0,0-.63A2.79,2.79,0,0,0,361.43,563.55Z" transform="translate(-134.99 -484.35)"/><path class="cls-1" d="M354.08,543.09h0Z" transform="translate(-134.99 -484.35)"/><path class="cls-1" d="M361.55,575.81c-.13,4.21-.43,8.25-.87,12-.11,1-.23,2-.37,3-.11.81-.23,1.61-.37,2.38-.05.39-.12.76-.18,1.13,0,.07,0,.16,0,.23-1.87,10.7-4.91,17.82-8.14,17.75s-5.66-6.91-6.89-17.16a131.21,131.21,0,0,1-.76-19.73c.13-4.23.43-8.28.87-12h14.57l2.05,0v.05c0,.06,0,.14,0,.2.07,1.16.11,2.34.15,3.54Q361.68,571.29,361.55,575.81Z" transform="translate(-134.99 -484.35)"/><rect class="cls-1" y="79" width="218.94" height="31.79" rx="7.06" ry="7.06"/><path class="cls-1" d="M347.49,563.35h.87c0,.36-.08.72-.11,1.08a158.85,158.85,0,0,0-.73,15.89c0,4.94.13,9.87.37,14.81,0,.37,0,.75.05,1.11,0-.36-.07-.74-.1-1.11-.45-4.92-.75-9.86-.87-14.81a157.35,157.35,0,0,1,.42-16C347.41,564,347.45,563.68,347.49,563.35Z" transform="translate(-134.99 -484.35)"/><path class="cls-1" d="M354.1,543.07l0,0h0Z" transform="translate(-134.99 -484.35)"/><path class="cls-2" d="M359.32,577.8c-.14,3.55-.38,6.93-.71,10q-.32,2.86-.7,5.34c-.06.38-.12.76-.18,1.12,0,.09,0,.18-.05.26-1.08,6.2-2.52,10.12-3.94,10s-2.41-3.74-3-9.41a129.38,129.38,0,0,1-.42-18.08c.2-5,.55-9.7,1-13.7H359v0A117.55,117.55,0,0,1,359.32,577.8Z" transform="translate(-134.99 -484.35)"/><path class="cls-1" d="M359.68,568.41c-.07-1.72-.16-3.38-.3-4.92a.71.71,0,0,1,0-.14v0h-.66a98.94,98.94,0,0,1,.36,10.9c0,1,0,2-.05,3.09,0,.16,0,.3,0,.45-.05.81-.08,1.61-.12,2.4-.14,2.67-.35,5.23-.62,7.63-.07.74-.17,1.47-.26,2.18-.11,1-.24,1.89-.36,2.76,0,.14-.06.27-.08.4s0,.24,0,.35-.09.44-.13.67c0,0,0,.07,0,.09a1.86,1.86,0,0,1-.05.27c-.85,5-1.92,8.46-3.05,9.45a.85.85,0,0,1-.51.22c-1.08-.09-2.09-3.47-2.69-9.08a131.91,131.91,0,0,1-.41-18.06c.2-5.13.56-9.79,1-13.72H351c-.5,4.3-.82,9.11-1,13.68a137.11,137.11,0,0,0,.4,18.1c.6,5.65,1.68,9.63,3.33,9.76h.13a1.54,1.54,0,0,0,.88-.39c1.23-1.1,2.4-4.76,3.31-10,0-.08,0-.17.05-.26a.89.89,0,0,1,0-.15c0-.25.08-.51.13-.77l0-.19c0-.21.05-.43.08-.65.13-.86.27-1.74.38-2.68.08-.65.15-1.33.22-2,.26-2.4.47-5,.62-7.63,0-.79.07-1.58.11-2.38a1.77,1.77,0,0,1,0-.23,1.93,1.93,0,0,0,0-.24c0-1,.05-2.07.05-3.07C359.77,572.25,359.75,570.29,359.68,568.41Z" transform="translate(-134.99 -484.35)"/><path class="cls-1" d="M944.51,563.43l-1,1.13-2.65,2.86c-.24.25-2.5,2.76-6.2,6.21a121.83,121.83,0,0,1-23.1,17.23,71.68,71.68,0,0,1-7.64,3.7l-.09,0h-1.23l0,.06H901.4s-482.22-.87-540.62-1.46h-3.22l-1.63,0-.71,0c-.16,0-.23,0-.23,0a2.75,2.75,0,0,0,.13-.76h0a2.09,2.09,0,0,0,0-.5l-.09-.64-.06-.36-.09-.81c-.1-.71-.16-1.44-.25-2.16a1,1,0,0,1,0-.17,72.27,72.27,0,0,1-.21-9.42c.06-1.58-.1-3.2.08-4.75s.24-3.13.5-4.69c.09-.47.64-3.51.94-4.81a3.41,3.41,0,0,1,.17-.59s.7,0,2-.06h1.26l2.05,0C417.54,562.71,898,562,898,562h.86l10.28-.06,27.37,0Z" transform="translate(-134.99 -484.35)"/><path class="cls-3" d="M944.6,564.56l-3.7,4c-.24.24-2.5,2.74-6.2,6.2A122.16,122.16,0,0,1,911.6,592a72.69,72.69,0,0,1-7.64,3.7l-.09,0h-1.24l0,.06h-1.11s-546.6-1-546.41-1.57a3.24,3.24,0,0,0,.13-1.27l-.09-.63-.06-.38-.09-.8c-.16-1.06-.21-2.15-.39-3.22l.07-.09,546.84.11h1.11l0,0h1.24l.09,0a72.69,72.69,0,0,0,7.64-3.7,122.16,122.16,0,0,0,23.1-17.23c.91-.84,1.73-1.64,2.46-2.35Z" transform="translate(-134.99 -484.35)"/><rect class="cls-4" x="15.65" y="86.81" width="2.8" height="15.57" rx="0.33" ry="0.33"/><rect class="cls-4" x="38.07" y="86.81" width="2.8" height="15.57" rx="0.33" ry="0.33"/><rect class="cls-4" x="60.5" y="86.81" width="2.8" height="15.57" rx="0.33" ry="0.33"/><rect class="cls-4" x="82.92" y="86.81" width="2.8" height="15.57" rx="0.33" ry="0.33"/><rect class="cls-4" x="105.34" y="86.81" width="2.8" height="15.57" rx="0.33" ry="0.33"/><rect class="cls-4" x="127.77" y="86.81" width="2.8" height="15.57" rx="0.33" ry="0.33"/><rect class="cls-4" x="150.19" y="86.81" width="2.8" height="15.57" rx="0.33" ry="0.33"/><rect class="cls-4" x="172.61" y="86.81" width="2.8" height="15.57" rx="0.33" ry="0.33"/><rect class="cls-4" x="195.03" y="86.81" width="2.8" height="15.57" rx="0.33" ry="0.33"/></svg>