<svg id="Layer_1" data-name="Layer 1" xmlns="http://www.w3.org/2000/svg" viewBox="0 0 803.08 156.01"><defs><style>.cls-1{fill:#333;}.cls-2{fill:#e2e2e2;}.cls-3{fill:#bababa;}.cls-4{fill:#fff;}</style></defs><title>uncut hilt</title><path class="cls-1" d="M150.59,462h11.79v23.63L184.54,462H200l-23.54,23.59,24.75,33.77H185.83l-17.68-25-5.77,5.85v19.19H150.59Z" transform="translate(-138.46 -462)"/><path class="cls-1" d="M314.26,462h13.56l20.29,57.36h-13l-3.79-11.79H310.21l-3.89,11.79H293.78Zm-.79,35.68h14.69l-7.25-22.57Z" transform="translate(-138.46 -462)"/><path class="cls-1" d="M481.12,462v10.15H464v47.21H451.89V472.15H434.65V462Z" transform="translate(-138.46 -462)"/><path class="cls-1" d="M588.55,462h13.56l20.3,57.36h-13l-3.78-11.79H584.5l-3.89,11.79H568.07Zm-.79,35.68h14.69l-7.24-22.57Z" transform="translate(-138.46 -462)"/><path class="cls-1" d="M719.41,462H732l22.77,40V462h11.17v57.36h-12l-23.35-40.7v40.7H719.41Z" transform="translate(-138.46 -462)"/><path class="cls-1" d="M883.47,462H897l20.3,57.36h-13l-3.78-11.79H879.42l-3.89,11.79H863Zm-.79,35.68h14.69l-7.24-22.57Z" transform="translate(-138.46 -462)"/><path class="cls-1" d="M362.94,569.46h-5.32V600.4h3.8a3,3,0,0,0,1.06-1.45,3.37,3.37,0,0,0,.13-1.26l-.09-.63-.06-.37h-1.13V573.17h1.93a4.37,4.37,0,0,1,.09-.5l.13-.56,0-.16.05-.3a3.31,3.31,0,0,0,0-.63A3,3,0,0,0,362.94,569.46Z" transform="translate(-138.46 -462)"/><ellipse class="cls-1" cx="354.45" cy="581.62" rx="36.4" ry="8.75" transform="translate(-376.7 455.23) rotate(-88.16)"/><rect class="cls-1" y="107.46" width="217.16" height="31.53" rx="7.01" ry="7.01"/><path class="cls-1" d="M359.63,556.45a38.84,38.84,0,0,0-1.08-3.83c-.22-.63-.43-1.26-.71-1.87a6.88,6.88,0,0,0-1-1.84,2.25,2.25,0,0,0-.52-.41,1.61,1.61,0,0,0-.39-.12.8.8,0,0,0-.23,0,.89.89,0,0,0-.31.09,2.33,2.33,0,0,0-.51.42c-.12.14-.23.29-.34.43a12.39,12.39,0,0,0-1.05,1.78,28.44,28.44,0,0,0-1.47,3.74,73.73,73.73,0,0,0-2.83,15.63,158,158,0,0,0-.41,15.84q.19,7.91,1,15.79c-.27-5.27-.44-10.54-.43-15.8s.2-10.53.72-15.76a72.9,72.9,0,0,1,2.89-15.41,26.8,26.8,0,0,1,1.45-3.6,10.8,10.8,0,0,1,1-1.62,3.3,3.3,0,0,1,.52-.56h-.07l.09,0a.8.8,0,0,1,.25.2,7.13,7.13,0,0,1,1,1.54c.29.58.58,1.16.85,1.76C358.47,554.07,359,555.27,359.63,556.45Z" transform="translate(-138.46 -462)"/><path class="cls-2" d="M352.05,583.05c-.59,14.86.92,27.07,3.39,27.28s4.94-11.67,5.54-26.53-1.53-27-4-27.26S352.65,568.19,352.05,583.05Z" transform="translate(-138.46 -462)"/><path class="cls-1" d="M361,569.59c0-.29-.05-.57-.09-.85s-.05-.55-.09-.81c-.72-6.86-2.13-11.57-3.84-11.72a1.24,1.24,0,0,0-1,.35c-1.5,1.34-2.6,6.53-3.34,12.9-.5,4.27-.81,9-1,13.57a133.44,133.44,0,0,0,.39,18c.59,5.6,1.67,9.55,3.3,9.68h.13a1.49,1.49,0,0,0,.87-.39c1.26-1.11,2.45-4.91,3.36-10.29a7.56,7.56,0,0,1,.13-.76c0-.28.07-.55.11-.83.13-.86.26-1.73.37-2.65.35-2.93.65-6.18.83-9.59,0-.77.08-1.55.11-2.35,0-.15,0-.32,0-.46q.06-1.56.06-3.06C361.45,576.47,361.32,572.82,361,569.59Zm-.31,10.68c0,1,0,2-.06,3.08,0,.14,0,.29,0,.44,0,.8-.08,1.6-.12,2.37-.18,3.47-.48,6.75-.87,9.73-.11,1-.24,1.88-.37,2.75,0,.26-.09.5-.11.74s-.09.44-.13.67c-.85,5.09-1.94,8.71-3.09,9.73a.85.85,0,0,1-.5.22c-1.08-.09-2.08-3.45-2.67-9a128.31,128.31,0,0,1-.41-17.92c.2-5.08.55-9.71,1-13.61q.25-2.13.54-4c.7-4.56,1.59-7.58,2.55-8.44a.62.62,0,0,1,.41-.18H357c1.15.09,2.5,4.15,3.24,10.93,0,.26.06.5.07.75s.06.53.08.79A99,99,0,0,1,360.73,580.27Z" transform="translate(-138.46 -462)"/><path class="cls-1" d="M941.45,569.54l-3.67,4c-.24.24-2.48,2.72-6.15,6.15a121.45,121.45,0,0,1-22.91,17.09,73.48,73.48,0,0,1-7.58,3.67l-.1,0h-1.22l0,0h-1.09s-542.19-1-542-1.56a3.18,3.18,0,0,0,.13-1.26l-.09-.63-.05-.37-.1-.79c-.11-.76-.16-1.54-.26-2.32a72.82,72.82,0,0,1-.2-9.34c.05-1.56.17-3.12.33-4.65s.39-3.1.65-4.64c.11-.59.54-3.76.69-3.93.51-.6,537.5-1.44,537.5-1.44h.85l10.2-.06,27.15,0Z" transform="translate(-138.46 -462)"/><path class="cls-3" d="M941.54,570.66l-3.67,4c-.24.24-2.49,2.72-6.16,6.15a121,121,0,0,1-22.9,17.09,72.65,72.65,0,0,1-7.59,3.67l-.09,0h-1.22l0,0h-1.09s-542.19-1-542-1.55a3.24,3.24,0,0,0,.13-1.27l-.09-.63-.06-.37-.09-.79c-.15-1-.2-2.13-.39-3.2l.07-.08,542.44.11h1.09l0-.06h1.22l.09,0a68.86,68.86,0,0,0,7.59-3.67A120.59,120.59,0,0,0,931.71,573c.91-.84,1.73-1.64,2.45-2.34Z" transform="translate(-138.46 -462)"/><rect class="cls-4" x="15.52" y="115.21" width="2.78" height="15.45" rx="0.33" ry="0.33"/><rect class="cls-4" x="37.76" y="115.21" width="2.78" height="15.45" rx="0.33" ry="0.33"/><rect class="cls-4" x="60.01" y="115.21" width="2.78" height="15.45" rx="0.33" ry="0.33"/><rect class="cls-4" x="82.25" y="115.21" width="2.78" height="15.45" rx="0.33" ry="0.33"/><rect class="cls-4" x="104.49" y="115.21" width="2.78" height="15.45" rx="0.33" ry="0.33"/><rect class="cls-4" x="126.73" y="115.21" width="2.78" height="15.45" rx="0.33" ry="0.33"/><rect class="cls-4" x="148.97" y="115.21" width="2.78" height="15.45" rx="0.33" ry="0.33"/><rect class="cls-4" x="171.21" y="115.21" width="2.78" height="15.45" rx="0.33" ry="0.33"/><rect class="cls-4" x="193.46" y="115.21" width="2.78" height="15.45" rx="0.33" ry="0.33"/></svg>