<?xml version="1.0" encoding="utf-8"?>
<!-- Generator: Adobe Illustrator 22.0.0, SVG Export Plug-In . SVG Version: 6.00 Build 0)  -->
<svg version="1.1" id="Layer_1" xmlns="http://www.w3.org/2000/svg" xmlns:xlink="http://www.w3.org/1999/xlink" x="0px" y="0px"
	 viewBox="0 0 2095 1569.9" style="enable-background:new 0 0 2095 1569.9;" xml:space="preserve">
<style type="text/css">
	.st0{fill:#FFFFFF;}
	.st1{fill:#333333;}
	.st2{fill:#E2E2E2;}
	.st3{fill:#BABABA;}
</style>
<rect x="-2513.9" y="-1583" class="st0" width="7684.3" height="1615.3"/>
<g>
	<g>
		<path class="st1" d="M-3747.2-39h134.2v268.9L-3360.9-39h176.2l-267.8,268.4l281.6,384.2h-175.3l-201.1-284.9l-65.7,66.6v218.3
			h-134.2V-39z"/>
		<path class="st1" d="M-1885-39h154.3l230.9,652.7h-147.9l-43.1-134.2h-240.3l-44.2,134.2H-2118L-1885-39z M-1894,367h167.2
			l-82.4-256.8L-1894,367z"/>
		<path class="st1" d="M13.5-39V76.6h-195.3v537.1h-137.3V76.6h-196.2V-39H13.5z"/>
		<path class="st1" d="M1235.8-39h154.3L1621,613.7h-147.9l-43.1-134.2h-240.3l-44.2,134.2h-142.7L1235.8-39z M1226.8,367H1394
			l-82.4-256.8L1226.8,367z"/>
		<path class="st1" d="M2724.7-39h143l259.1,455.1V-39h127.1v652.7h-136.3l-265.7-463.1v463.1h-127.1V-39z"/>
		<path class="st1" d="M4591.3-39h154.3l230.9,652.7h-147.9l-43.1-134.2h-240.3L4501,613.7h-142.7L4591.3-39z M4582.4,367h167.2
			l-82.4-256.8L4582.4,367z"/>
	</g>
	<g>
		<path class="st1" d="M-1331.1,1183.7h-60.5v352h43.2c5.5-4,9.9-9.9,12-16.4c1.5-4.6,1.9-9.7,1.5-14.3l-1.1-7.2l-0.6-4.2h-12.9
			v-267.6h21.9c0.2-1.9,0.6-3.8,1.1-5.7l1.5-6.3l0.4-1.9l0.6-3.4c0.2-2.3,0.2-4.6,0-7.2C-1324.6,1194.9-1327.1,1188.8-1331.1,1183.7
			z"/>
		<g>
			
				<ellipse transform="matrix(3.208253e-02 -0.9995 0.9995 3.208253e-02 -2703.269 -147.3779)" class="st1" cx="-1427.7" cy="1322" rx="414.2" ry="99.5"/>
		</g>
		<g>
			<path class="st1" d="M-3885.2,1462.7c0,43.9,35.9,79.7,79.7,79.7h2311.4c43.9,0,79.7-35.9,79.7-79.7v-199.3
				c0-43.9-35.9-79.7-79.7-79.7h-2311.4c-43.9,0-79.7,35.9-79.7,79.7V1462.7z"/>
		</g>
		<g>
			<path class="st1" d="M-1368.8,1035.6c-3.3-14.8-7.5-29.2-12.2-43.5c-2.5-7.1-4.9-14.3-8.1-21.3c-3.2-7-6.1-14.1-12-20.8
				c-1.5-1.7-3.3-3.4-5.9-4.7c-1.3-0.7-2.8-1.2-4.4-1.4c-0.9-0.1-1.3-0.2-2.7-0.1c-1.9,0.2-2.7,0.7-3.5,1.1
				c-2.8,1.6-4.2,3.2-5.7,4.8c-1.5,1.6-2.7,3.2-3.9,4.8c-4.7,6.5-8.5,13.3-11.9,20.2c-6.8,13.8-12.2,28.1-16.8,42.6
				c-18.3,57.9-26.7,118-32.2,177.8c-4.9,60-5.8,120.2-4.6,180.2c1.5,60,5.2,120,11,179.7c-3-59.9-5-119.8-4.8-179.8
				c0-59.9,2.3-119.8,8.1-179.3c5.8-59.4,14.6-118.9,32.9-175.3c4.6-14.1,10-27.9,16.5-40.9c3.3-6.5,6.9-12.9,11-18.5
				c1.9-2.6,4.7-5.6,5.9-6.5c0,0,0.1,0-0.9,0.2c-0.5,0,0.1,0,0.1,0c0.3,0,0.6,0.1,1,0.3c0.8,0.3,1.8,1.2,2.8,2.3
				c4.1,4.5,7.8,11.1,11.1,17.6c3.3,6.6,6.6,13.2,9.7,20C-1382,1008.5-1375.8,1022.2-1368.8,1035.6z"/>
		</g>
		<g>
			<path class="st2" d="M-1455,1338.3c-6.8,169,10.5,308,38.5,310.3c28.1,2.3,56.3-132.8,63.1-301.8c6.8-169-17.4-307.8-45.5-310.1
				C-1426.9,1034.4-1448.2,1169.3-1455,1338.3z"/>
			<path class="st1" d="M-1352.7,1185.2c-0.4-3.4-0.6-6.5-1.1-9.7c-0.2-3.2-0.6-6.3-1.1-9.3c-8.2-78-24.3-131.6-43.7-133.3
				c-3.8-0.4-7.6,1.1-11,4c-17.1,15.2-29.5,74.2-38,146.8c-5.7,48.5-9.3,102.7-11.4,154.4c-3,71.7-1.5,145.9,4.4,204.3
				c6.7,63.7,19,108.6,37.5,110.1h1.5c3.4-0.2,6.7-1.7,9.9-4.4c14.3-12.7,27.8-55.9,38.2-117c0.4-2.7,0.8-5.7,1.5-8.6
				c0.4-3.2,0.8-6.3,1.3-9.5c1.5-9.7,3-19.6,4.2-30.2c4-33.3,7.4-70.2,9.5-109c0.4-8.9,0.8-17.7,1.3-26.8c0-1.7,0.2-3.6,0.2-5.3
				c0.4-11.8,0.6-23.4,0.6-34.8C-1348.1,1263.5-1349.5,1221.9-1352.7,1185.2z M-1356.3,1306.7c0,11.4-0.2,23-0.6,35
				c0,1.7-0.2,3.4-0.2,5.1c-0.4,9.1-0.8,18.1-1.3,27c-2.1,39.4-5.5,76.8-9.9,110.7c-1.3,10.8-2.7,21.3-4.2,31.2
				c-0.4,3-1.1,5.7-1.3,8.4c-0.6,2.5-1.1,5.1-1.5,7.6c-9.7,58-22.1,99.1-35.2,110.7c-2.1,1.7-4,2.5-5.7,2.5
				c-12.2-1.1-23.6-39.2-30.4-102.5c-5.5-52.7-7.8-122.9-4.6-203.9c2.3-57.8,6.3-110.5,11.6-154.8c1.9-16.2,4-31.2,6.1-45.1
				c8-51.9,18.1-86.3,29.1-96c1.7-1.5,3.2-2.1,4.6-2.1h0.6c13.1,1.1,28.5,47.2,36.9,124.4c0.2,3,0.6,5.7,0.8,8.4
				c0.2,3,0.6,6.1,0.8,9.1C-1357.1,1218.5-1355.4,1260.3-1356.3,1306.7z"/>
		</g>
		<path class="st1" d="M5251,1184.6l-41.8,45.1c-2.7,2.7-28.3,31-70,70c-59.9,55.9-153.3,135-260.7,194.4
			c-27.8,15.4-56.7,29.7-86.3,41.8l-1.1,0.4h-13.9l-0.4,0.6h-12.4c0,0-6168.9-11.2-6166.8-17.7c1.5-4.6,1.9-9.7,1.5-14.3l-1.1-7.2
			l-0.6-4.2l-1.1-9.1c-1.3-8.6-1.9-17.5-3-26.4c-3.2-35.4-3.8-70.9-2.3-106.3c0.6-17.7,1.9-35.4,3.8-52.9
			c1.9-17.7,4.4-35.2,7.4-52.7c1.3-6.7,6.2-42.8,7.8-44.7c5.8-6.9,6115.6-16.4,6115.6-16.4h9.7l116-0.6l308.9,0.2H5251z"/>
		<path class="st3" d="M5252,1197.3l-41.8,45.1c-2.7,2.7-28.3,31-70,70c-59.9,55.9-153.3,135-260.7,194.4
			c-27.8,15.4-56.7,29.7-86.3,41.8l-1.1,0.4h-13.9l-0.4,0.6h-12.4c0,0-6168.9-11.2-6166.8-17.7c1.5-4.6,1.9-9.7,1.5-14.3l-1.1-7.2
			l-0.6-4.2l-1.1-9.1c-1.7-11.9-2.3-24.2-4.4-36.4c0.3-0.4,0.5-0.5,0.8-1l6171.7,1.3h12.4l0.4-0.6h13.9l1.1-0.4
			c29.5-12,58.4-26.4,86.3-41.8c107.3-59.5,200.8-138.6,260.7-194.4c10.3-9.5,19.6-18.6,27.8-26.6H5252z"/>
		<path class="st0" d="M-3677.3,1447.6h-31c-0.2,0-0.3-0.1-0.3-0.3v-175.1c0-0.2,0.1-0.3,0.3-0.3h31c0.2,0,0.3,0.1,0.3,0.3v175.1
			C-3677,1447.4-3677.1,1447.6-3677.3,1447.6z"/>
		<path class="st0" d="M-3424.2,1447.6h-31c-0.2,0-0.3-0.1-0.3-0.3v-175.1c0-0.2,0.1-0.3,0.3-0.3h31c0.2,0,0.3,0.1,0.3,0.3v175.1
			C-3423.9,1447.4-3424,1447.6-3424.2,1447.6z"/>
		<path class="st0" d="M-3171.2,1447.6h-31c-0.2,0-0.3-0.1-0.3-0.3v-175.1c0-0.2,0.1-0.3,0.3-0.3h31c0.2,0,0.3,0.1,0.3,0.3v175.1
			C-3170.8,1447.4-3171,1447.6-3171.2,1447.6z"/>
		<path class="st0" d="M-2918.1,1447.6h-31c-0.2,0-0.3-0.1-0.3-0.3v-175.1c0-0.2,0.1-0.3,0.3-0.3h31c0.2,0,0.3,0.1,0.3,0.3v175.1
			C-2917.8,1447.4-2917.9,1447.6-2918.1,1447.6z"/>
		<path class="st0" d="M-2665,1447.6h-31c-0.2,0-0.3-0.1-0.3-0.3v-175.1c0-0.2,0.1-0.3,0.3-0.3h31c0.2,0,0.3,0.1,0.3,0.3v175.1
			C-2664.7,1447.4-2664.8,1447.6-2665,1447.6z"/>
		<path class="st0" d="M-2412,1447.6h-31c-0.2,0-0.3-0.1-0.3-0.3v-175.1c0-0.2,0.1-0.3,0.3-0.3h31c0.2,0,0.3,0.1,0.3,0.3v175.1
			C-2411.6,1447.4-2411.8,1447.6-2412,1447.6z"/>
		<path class="st0" d="M-2158.9,1447.6h-31c-0.2,0-0.3-0.1-0.3-0.3v-175.1c0-0.2,0.1-0.3,0.3-0.3h31c0.2,0,0.3,0.1,0.3,0.3v175.1
			C-2158.6,1447.4-2158.7,1447.6-2158.9,1447.6z"/>
		<path class="st0" d="M-1905.8,1447.6h-31c-0.2,0-0.3-0.1-0.3-0.3v-175.1c0-0.2,0.1-0.3,0.3-0.3h31c0.2,0,0.3,0.1,0.3,0.3v175.1
			C-1905.5,1447.4-1905.7,1447.6-1905.8,1447.6z"/>
		<path class="st0" d="M-1652.8,1447.6h-31c-0.2,0-0.3-0.1-0.3-0.3v-175.1c0-0.2,0.1-0.3,0.3-0.3h31c0.2,0,0.3,0.1,0.3,0.3v175.1
			C-1652.4,1447.4-1652.6,1447.6-1652.8,1447.6z"/>
	</g>
</g>
</svg>
