<?xml version="1.0" encoding="utf-8"?>
<!-- Generator: Adobe Illustrator 22.0.0, SVG Export Plug-In . SVG Version: 6.00 Build 0)  -->
<svg version="1.1" id="Layer_1" xmlns="http://www.w3.org/2000/svg" xmlns:xlink="http://www.w3.org/1999/xlink" x="0px" y="0px"
	 viewBox="0 0 2095 1569.9" style="enable-background:new 0 0 2095 1569.9;" xml:space="preserve">
<style type="text/css">
	.st0{fill:#FFFFFF;}
	.st1{fill:#333333;}
	.st2{fill:#E2E2E2;}
	.st3{fill:#BABABA;}
</style>
<rect x="-2513.9" y="-1583" class="st0" width="7684.3" height="1615.3"/>
<g>
	<g>
		<path class="st1" d="M-3617.4,127.9h132.6v270.8l249.3-270.8h174.2L-3326,398.2l278.4,386.9H-3221l-198.8-286.8l-64.9,67.1v219.8
			h-132.6V127.9z"/>
		<path class="st1" d="M-1787,127.9h152.6l228.3,657.1h-146.2L-1595,650h-237.6l-43.7,135.1h-141L-1787,127.9z M-1795.9,536.8h165.3
			l-81.5-258.6L-1795.9,536.8z"/>
		<path class="st1" d="M79.2,127.9v116.4h-193.1v540.8h-135.7V244.3h-193.9V127.9H79.2z"/>
		<path class="st1" d="M1277,127.9h152.6l228.3,657.1h-146.2L1469.1,650h-237.6l-43.7,135.1h-141L1277,127.9z M1268.1,536.8h165.3
			l-81.5-258.6L1268.1,536.8z"/>
		<path class="st1" d="M2738.3,127.9h141.4l256.1,458.2V127.9h125.6v657.1h-134.8l-262.7-466.3v466.3h-125.6V127.9z"/>
		<path class="st1" d="M4573,127.9h152.6l228.3,657.1h-146.2L4765.1,650h-237.6l-43.7,135.1h-141L4573,127.9z M4564.1,536.8h165.3
			l-81.5-258.6L4564.1,536.8z"/>
	</g>
	<g>
		<path class="st1" d="M-1288.1,1020.6c-0.4-0.8-0.9-1.5-1.5-2.3h-60.4v351.6h43.2c1-0.8,2.2-1.7,3.1-2.6c3.7-3.5,6.7-7.8,8.4-12.6
			c0.2-0.4,0.4-0.8,0.5-1.2c1.5-4.6,2-9.7,1.5-14.3l-1.1-7.2l-0.6-4.2h-12.8v-267.2h21.9c0.2-2,0.6-3.8,1-5.8l1.5-6.3l0.4-1.9
			l0.6-3.4c0.2-2.3,0.2-4.6,0-7.1C-1282.9,1030.4-1284.9,1025.2-1288.1,1020.6z"/>
		<g>
			<path class="st1" d="M-1371,790c-0.2-0.1-0.3-0.1-0.4-0.1c0.4-0.1,0.5-0.1,0.7-0.1C-1370.8,789.7-1370.9,789.9-1371,790z"/>
			<path class="st1" d="M-1286.7,1158.7c-1.5,47.5-4.8,93-9.8,135.4c-1.2,11.3-2.7,22.6-4.2,33.5c-1.2,9.2-2.6,18.2-4.1,26.9
				c-0.6,4.3-1.3,8.6-2.1,12.7c-0.1,0.8-0.3,1.8-0.4,2.6c-21.1,120.6-55.4,200.8-91.8,200c-35.3-0.8-63.8-77.9-77.7-193.3
				c-7.8-64.4-11.1-140.7-8.6-222.4c1.5-47.7,4.8-93.4,9.8-135.9h150.1c2.1-0.1,4.3-0.1,6.7-0.1c1.1,0,2.4-0.1,3.6-0.1h3.8
				c6.8-0.1,14.5-0.2,23.2-0.3v0.5c0,0.7,0.1,1.5,0.1,2.3c0.7,13.1,1.2,26.4,1.6,39.9C-1285.6,1092.1-1285.7,1124.9-1286.7,1158.7z"
				/>
		</g>
		<g>
			<path class="st1" d="M-1452.3,1018.3c43.8,0,79.6,35.8,79.6,79.6v199c0,43.8-35.8,79.6-79.6,79.6h-2308.5
				c-43.8,0-79.6-35.8-79.6-79.6v-199c0-43.8,35.8-79.6,79.6-79.6H-1452.3z"/>
		</g>
		<g>
			<path class="st1" d="M-1445.3,1018.3h9.8c-0.4,4-0.8,8.1-1.2,12.2c-5.9,59.4-8.1,119.2-8.1,179.1c-0.2,55.7,1.4,111.3,4.1,167
				c0.2,4.1,0.4,8.4,0.6,12.5c-0.4-4.1-0.8-8.4-1.1-12.5c-5.2-55.5-8.5-111.2-9.8-167c-1.1-59.9-0.3-120.1,4.6-179.9
				C-1446.1,1025.9-1445.7,1022.1-1445.3,1018.3z"/>
			<path class="st1" d="M-1370.7,789.7c-0.1,0-0.2,0.1-0.3,0.2c-0.2-0.1-0.3-0.1-0.4-0.1C-1371,789.7-1370.9,789.7-1370.7,789.7z"/>
		</g>
		<g>
			<path class="st2" d="M-1311.9,1181.2c-1.5,40-4.3,78.1-8,113c-2.4,21.5-5,41.6-7.8,60.1c-0.7,4.3-1.3,8.6-2.1,12.7
				c-0.2,0.9-0.3,2-0.5,2.9c-12.2,69.9-28.4,114.1-44.5,112.8c-15.2-1.3-27.1-42.2-33.8-106c-5.8-54.6-7.7-126.1-4.6-203.8
				c2.3-56.6,6.2-109.3,11.3-154.4h76.4c2.1-0.1,4.3-0.1,6.7-0.1c1.1,0,2.4-0.1,3.6-0.1c0.1,0.1,0.1,0.1,0.1,0.2
				C-1311,1065.7-1309.5,1121.6-1311.9,1181.2z"/>
			<path class="st1" d="M-1307.9,1075.4c-0.7-19.4-1.8-38.1-3.3-55.5c-0.1-0.5-0.1-1-0.2-1.5c0-0.1,0-0.2,0-0.2h-3.8
				c-1.2,0-2.5,0.1-3.6,0.1v0.1c3.3,35.7,5,77,4.1,122.9c0,11.3-0.2,22.9-0.6,34.9c0,1.8-0.2,3.4-0.2,5.1c-0.5,9.1-0.9,18.2-1.3,27
				c-1.5,30.1-3.9,59-7,86c-0.8,8.4-1.9,16.5-2.9,24.6c-1.2,10.7-2.7,21.3-4.1,31.2c-0.3,1.5-0.6,3-0.8,4.4c-0.2,1.3-0.4,2.7-0.5,4
				c-0.6,2.5-1,5-1.4,7.5c-0.1,0.3-0.1,0.7-0.2,1c-0.1,1-0.3,2.1-0.5,3c-9.6,55.8-21.7,95.3-34.5,106.6c-2.1,1.7-4,2.5-5.7,2.5
				c-12.3-1-23.6-39.1-30.3-102.3c-5.5-52.6-7.8-122.8-4.6-203.6c2.3-57.8,6.3-110.4,11.6-154.6h-7.7
				c-5.7,48.5-9.3,102.6-11.4,154.2c-2.9,71.6-1.4,145.8,4.4,204c6.8,63.6,19,108.5,37.5,110h1.4c3.4-0.2,6.7-1.7,9.9-4.4
				c13.9-12.4,27.1-53.6,37.3-112.2c0.2-0.9,0.3-1.9,0.5-2.9c0.1-0.5,0.2-1.1,0.3-1.8c0.4-2.8,0.8-5.7,1.4-8.7
				c0.1-0.7,0.2-1.4,0.3-2.2c0.3-2.4,0.6-4.8,0.9-7.3c1.4-9.7,3-19.6,4.2-30.1c0.9-7.4,1.8-15.1,2.6-22.8c2.9-27,5.3-56,6.9-86
				c0.4-8.9,0.8-17.7,1.2-26.8c0-0.8,0-1.8,0.1-2.6c0.1-0.9,0.1-1.9,0.1-2.7c0.4-11.8,0.6-23.3,0.6-34.7
				C-1306.9,1118.7-1307.1,1096.5-1307.9,1075.4z"/>
		</g>
		<path class="st1" d="M5283.9,1019.3l-11.8,12.7l-29.9,32.3c-2.7,2.8-28.2,31.1-69.9,69.9c-59.7,55.8-153.1,134.8-260.3,194.2
			c-27.9,15.4-56.6,29.7-86.1,41.7l-1,0.4H4811l-0.4,0.6h-12.5c0,0-5435.3-9.8-6093.5-16.4c-3.3,0-6.4-0.1-9.5-0.1
			c-7-0.1-13.3-0.1-19-0.2c-1.3,0-2.7,0-3.9-0.1h-3.9c-7.5-0.1-13.7-0.2-18.4-0.3c-3.6-0.1-6.2-0.2-8-0.3c-1.8,0-2.6-0.1-2.6-0.2
			c0.9-2.8,1.3-5.7,1.4-8.7v-0.1c0.2-1.9,0.2-3.7,0-5.6l-1-7.2l-0.6-4.1l-1-9.1c-1.1-8-1.9-16.2-2.8-24.3c-0.1-0.6-0.1-1.3-0.2-2
			c-3.1-35.4-3.8-70.8-2.3-106.1c0.6-17.7-1.1-36.1,0.8-53.5c1.9-17.7,2.7-35.3,5.7-52.8c1-5.4,7.2-39.6,10.6-54.3
			c0.8-3.7,1.5-6.2,1.9-6.6c0.2-0.2,7.9-0.5,22.7-0.7c2.1-0.1,4.3-0.1,6.7-0.1c1.1,0,2.4-0.1,3.6-0.1h3.8c6.8-0.1,14.5-0.2,23.2-0.3
			c632.5-6.7,6047.6-15.3,6047.6-15.3h9.7l115.8-0.6l308.5,0.2L5283.9,1019.3z"/>
		<path class="st3" d="M5285,1032l-41.7,45.1c-2.7,2.7-28.2,31-69.9,69.9c-59.8,55.8-153.1,134.8-260.3,194.2
			c-27.8,15.4-56.7,29.7-86.1,41.7l-1.1,0.4h-13.9l-0.4,0.6h-12.4c0,0-6160.9-11.2-6158.8-17.7c1.5-4.6,1.9-9.7,1.5-14.3l-1.1-7.2
			l-0.6-4.2l-1.1-9.1c-1.7-11.9-2.3-24.2-4.4-36.3c0.3-0.4,0.5-0.5,0.8-1l6163.6,1.3h12.4l0.4-0.6h13.9l1.1-0.4
			c29.5-12,58.3-26.3,86.1-41.7c107.2-59.4,200.5-138.4,260.3-194.2c10.3-9.5,19.6-18.5,27.8-26.5H5285z"/>
		<path class="st0" d="M-3632.7,1281.9h-30.9c-0.2,0-0.3-0.1-0.3-0.3v-174.8c0-0.2,0.1-0.3,0.3-0.3h30.9c0.2,0,0.3,0.1,0.3,0.3
			v174.8C-3632.4,1281.7-3632.5,1281.9-3632.7,1281.9z"/>
		<path class="st0" d="M-3380,1281.9h-30.9c-0.2,0-0.3-0.1-0.3-0.3v-174.8c0-0.2,0.1-0.3,0.3-0.3h30.9c0.2,0,0.3,0.1,0.3,0.3v174.8
			C-3379.6,1281.7-3379.8,1281.9-3380,1281.9z"/>
		<path class="st0" d="M-3127.2,1281.9h-30.9c-0.2,0-0.3-0.1-0.3-0.3v-174.8c0-0.2,0.1-0.3,0.3-0.3h30.9c0.2,0,0.3,0.1,0.3,0.3
			v174.8C-3126.9,1281.7-3127.1,1281.9-3127.2,1281.9z"/>
		<path class="st0" d="M-2874.5,1281.9h-30.9c-0.2,0-0.3-0.1-0.3-0.3v-174.8c0-0.2,0.1-0.3,0.3-0.3h30.9c0.2,0,0.3,0.1,0.3,0.3
			v174.8C-2874.2,1281.7-2874.3,1281.9-2874.5,1281.9z"/>
		<path class="st0" d="M-2621.8,1281.9h-30.9c-0.2,0-0.3-0.1-0.3-0.3v-174.8c0-0.2,0.1-0.3,0.3-0.3h30.9c0.2,0,0.3,0.1,0.3,0.3
			v174.8C-2621.4,1281.7-2621.6,1281.9-2621.8,1281.9z"/>
		<path class="st0" d="M-2369,1281.9h-30.9c-0.2,0-0.3-0.1-0.3-0.3v-174.8c0-0.2,0.1-0.3,0.3-0.3h30.9c0.2,0,0.3,0.1,0.3,0.3v174.8
			C-2368.7,1281.7-2368.9,1281.9-2369,1281.9z"/>
		<path class="st0" d="M-2116.3,1281.9h-30.9c-0.2,0-0.3-0.1-0.3-0.3v-174.8c0-0.2,0.1-0.3,0.3-0.3h30.9c0.2,0,0.3,0.1,0.3,0.3
			v174.8C-2116,1281.7-2116.1,1281.9-2116.3,1281.9z"/>
		<path class="st0" d="M-1863.6,1281.9h-30.9c-0.2,0-0.3-0.1-0.3-0.3v-174.8c0-0.2,0.1-0.3,0.3-0.3h30.9c0.2,0,0.3,0.1,0.3,0.3
			v174.8C-1863.2,1281.7-1863.4,1281.9-1863.6,1281.9z"/>
		<path class="st0" d="M-1610.8,1281.9h-30.9c-0.2,0-0.3-0.1-0.3-0.3v-174.8c0-0.2,0.1-0.3,0.3-0.3h30.9c0.2,0,0.3,0.1,0.3,0.3
			v174.8C-1610.5,1281.7-1610.7,1281.9-1610.8,1281.9z"/>
	</g>
</g>
</svg>
