<svg id="Layer_1" data-name="Layer 1" xmlns="http://www.w3.org/2000/svg" viewBox="0 0 427.54 40.5"><defs><style>.cls-1{fill:#fff;}.cls-2{fill:#333;}</style></defs><title>katana</title><path class="cls-1" d="M752,522.57s-7.59,9-17.49,13.85c0,0-66.12,11.22-151.35,12.1s-130.51-.59-130.51-.59l.24-13.16s51.07,3.78,129.82,1.29S737.69,525.51,752,522.57Z" transform="translate(-326.88 -520)"/><path class="cls-2" d="M610.88,548.79c70.74-2.57,123.18-11.35,123.76-11.45l.14,0,.12-.06c10-4.89,17.48-13.72,17.79-14.09l1.73-2-2.63.54c-13.06,2.69-84.51,10.4-161.16,13.2l-8,.27c-77.81,2.46-129.21-1.25-129.72-1.29l-1-.07-.27,15.06.91,0c.46,0,46.27,1.45,130.55.59C592.64,549.35,601.91,549.12,610.88,548.79ZM734.2,535.53c-3.39.56-68.7,11.21-151.07,12.06-77.71.79-122.7-.37-129.55-.57l.2-11.25c7.48.49,56.93,3.5,128.94,1.22,75.38-2.39,147.6-9.85,166.69-13A59.15,59.15,0,0,1,734.2,535.53Z" transform="translate(-326.88 -520)"/><path class="cls-2" d="M752,522.57c-2.92,1.2-5.76,2.59-8.67,3.74a74,74,0,0,1-8.9,2.92A154.59,154.59,0,0,1,716,532.69c-3.1.42-6.24.8-9.36,1.2l-9.38,1.17q-9.37,1.14-18.76,2c-12.54,1.13-25.1,1.94-37.68,2.61s-25.16,1.2-37.75,1.7-25.17,1-37.76,1.16-25.18.18-37.78.07q-37.77-.3-75.55-1.8l-.08,1.86q9.45.47,18.9.82t18.9.62c12.6.35,25.2.65,37.81.77s25.22.12,37.84,0,25.22-.65,37.81-1.14,25.19-1.12,37.78-1.84,25.18-1.58,37.75-2.77q9.42-.9,18.81-2.1l9.38-1.21c3.12-.4,6.24-.79,9.38-1.23,1.57-.2,3.13-.47,4.69-.71.78-.12,1.56-.28,2.34-.42s1.56-.27,2.34-.44l2.33-.48c.77-.17,1.54-.37,2.31-.56s1.54-.39,2.31-.6,1.53-.42,2.28-.67,1.52-.48,2.27-.75,1.5-.53,2.24-.83l1.11-.44,1.09-.48c.73-.31,1.44-.66,2.16-1C746.54,525.77,749.25,524.15,752,522.57Z" transform="translate(-326.88 -520)"/><ellipse class="cls-2" cx="447.09" cy="540.25" rx="20.26" ry="4.87" transform="translate(-434.1 449.78) rotate(-88.16)"/><path class="cls-2" d="M328.47,538.88l3.07.56h0l.63.11h0A652.74,652.74,0,0,0,443,549.83l.76-18A839.8,839.8,0,0,1,334,524.2l-3.46-.48a9.79,9.79,0,0,0-2.09,4.38,19,19,0,0,0-.48,2.91C327.47,536.23,328.47,538.88,328.47,538.88Z" transform="translate(-326.88 -520)"/><path class="cls-1" d="M330.15,527.42a1.62,1.62,0,0,1,1.47,1.82c-1,8.83-.15,10.11-.08,10.2h0l.63.11.31,0c-.38-3.3.47-12.66,1.81-15.28l-3.8-.53a9.79,9.79,0,0,0-2.09,4.38A2.61,2.61,0,0,1,330.15,527.42Z" transform="translate(-326.88 -520)"/><path class="cls-1" d="M437.59,531.82c-2.22,3.42-2,11.08-1.22,18.1l1.75,0s-1.22-13.17,1.13-13.45c3.32-.38,4,.36,4,.36l.51-4.92Z" transform="translate(-326.88 -520)"/><path class="cls-2" d="M443.93,550.76l.84-19.81h-1a837.3,837.3,0,0,1-109.74-7.66l-2.22-.31a3,3,0,0,0-3,1.47,13.78,13.78,0,0,0-1.34,3.44,18.85,18.85,0,0,0-.5,3,25.52,25.52,0,0,0,.2,6.68h0a3,3,0,0,0,2.41,2.43l1.56.28.27,0,.31.06.26,0a658.59,658.59,0,0,0,111,10.29Zm-1.1-18-.68,16.09a658.62,658.62,0,0,1-109.08-10.11v0l-.75-.12-.32-.06h0l-.3-.05-1.75-.32a1.15,1.15,0,0,1-.92-.93h0a23.75,23.75,0,0,1-.18-6.19,17.85,17.85,0,0,1,.46-2.76,11.64,11.64,0,0,1,1.15-3,1.13,1.13,0,0,1,1.14-.55l2.22.31A838.79,838.79,0,0,0,442.83,532.8Z" transform="translate(-326.88 -520)"/><polygon class="cls-1" points="102.84 16.45 105.86 22.28 102.26 27.49 99.25 22.01 102.84 16.45"/><polygon class="cls-1" points="93.69 16.02 96.65 21.8 93.06 26.93 90.11 21.49 93.69 16.02"/><polygon class="cls-1" points="84.55 15.58 87.43 21.33 83.85 26.38 80.96 20.97 84.55 15.58"/><polygon class="cls-1" points="75.4 15.14 78.22 20.85 74.64 25.82 71.82 20.45 75.4 15.14"/><polygon class="cls-1" points="66.25 14.7 69.01 20.37 65.43 25.27 62.68 19.93 66.25 14.7"/><polygon class="cls-1" points="57.12 14.18 59.8 19.81 56.23 24.62 53.54 19.33 57.12 14.18"/><polygon class="cls-1" points="48.03 12.95 50.66 18.55 47.09 23.28 44.46 18.02 48.03 12.95"/><polygon class="cls-1" points="38.95 11.73 41.51 17.28 37.95 21.94 35.38 16.72 38.95 11.73"/><polygon class="cls-1" points="29.87 10.51 32.36 16.02 28.81 20.61 26.3 15.42 29.87 10.51"/><polygon class="cls-1" points="20.79 9.29 23.21 14.76 19.66 19.27 17.23 14.11 20.79 9.29"/><polygon class="cls-1" points="11.71 8.06 14.07 13.5 10.52 17.93 8.15 12.81 11.71 8.06"/><polygon class="cls-1" points="105.86 22.27 101.21 13.3 104.5 22.91 105.86 22.27"/><path class="cls-1" d="M425.88,547.53a38.48,38.48,0,0,0-1.33-3.83c-.5-1.25-1.05-2.48-1.62-3.7s-1.21-2.4-1.89-3.56a21.54,21.54,0,0,0-2.3-3.29c.63,1.19,1.21,2.39,1.79,3.59l1.74,3.62c.58,1.2,1.16,2.4,1.76,3.6S425.23,546.35,425.88,547.53Z" transform="translate(-326.88 -520)"/><polygon class="cls-1" points="97.21 24.02 96.67 26.73 97.91 24.29 97.21 24.02"/><path class="cls-1" d="M416.5,547.1c-.37-1.3-.82-2.57-1.31-3.82s-1-2.48-1.59-3.7-1.18-2.41-1.85-3.56a19.87,19.87,0,0,0-2.28-3.29c.63,1.18,1.2,2.38,1.77,3.58l1.7,3.62c.57,1.2,1.13,2.41,1.72,3.61S415.85,545.93,416.5,547.1Z" transform="translate(-326.88 -520)"/><polygon class="cls-1" points="87.83 23.59 87.29 26.3 88.53 23.86 87.83 23.59"/><path class="cls-1" d="M407.52,547.22c-.37-1.3-.8-2.56-1.27-3.81s-1-2.48-1.52-3.7-1.13-2.41-1.78-3.58a18.53,18.53,0,0,0-2.24-3.29c.63,1.18,1.17,2.38,1.72,3.58l1.63,3.63c.55,1.2,1.09,2.41,1.66,3.61S406.87,546.05,407.52,547.22Z" transform="translate(-326.88 -520)"/><polygon class="cls-1" points="78.86 23.67 78.04 26.42 79.53 24.01 78.86 23.67"/><path class="cls-1" d="M398.25,546.5c-.37-1.29-.81-2.55-1.28-3.8s-1-2.48-1.52-3.7-1.13-2.42-1.78-3.58a19,19,0,0,0-2.24-3.3c.63,1.18,1.18,2.38,1.73,3.59l1.62,3.62c.55,1.21,1.09,2.42,1.66,3.62S397.59,545.34,398.25,546.5Z" transform="translate(-326.88 -520)"/><polygon class="cls-1" points="69.58 22.96 68.77 25.71 70.25 23.3 69.58 22.96"/><path class="cls-1" d="M424.88,535.31a9.05,9.05,0,0,0-.5,1.25,7.08,7.08,0,0,0-.31,1.34l.51-.1c-.15-.33-.29-.65-.46-1s-.34-.62-.53-.92A7.62,7.62,0,0,0,423,535a3.81,3.81,0,0,0-.75-.75c.35.62.65,1.24.95,1.87l.93,1.88.46,1,0-1c0-.41.08-.85.14-1.29S424.85,535.76,424.88,535.31Z" transform="translate(-326.88 -520)"/><path class="cls-1" d="M415.51,535.08a7.2,7.2,0,0,0-.5,1.18,6.63,6.63,0,0,0-.29,1.28l.5-.11c-.15-.31-.3-.63-.47-.93s-.34-.6-.54-.89a7.16,7.16,0,0,0-.62-.83,4.25,4.25,0,0,0-.75-.72c.34.61.65,1.21,1,1.82l.47.91c.15.3.33.6.48.9l.46.93,0-1c0-.39.07-.81.12-1.23S415.48,535.51,415.51,535.08Z" transform="translate(-326.88 -520)"/><path class="cls-1" d="M407,535.19a7.2,7.2,0,0,0-.5,1.18,7.46,7.46,0,0,0-.29,1.28l.5-.11a13.46,13.46,0,0,0-1-1.82,8.25,8.25,0,0,0-.62-.84,4.58,4.58,0,0,0-.75-.71c.34.61.65,1.21,1,1.82l.47.91c.16.3.33.6.48.9l.47.93,0-1c0-.39.07-.81.12-1.23S406.93,535.62,407,535.19Z" transform="translate(-326.88 -520)"/><path class="cls-1" d="M397.8,534.48a6.85,6.85,0,0,0-.5,1.18,6.63,6.63,0,0,0-.29,1.28l.5-.11c-.15-.32-.3-.63-.47-.93a8.77,8.77,0,0,0-.54-.89,8.25,8.25,0,0,0-.62-.84,4.64,4.64,0,0,0-.75-.72c.34.61.65,1.22,1,1.83l.47.9c.15.31.33.6.48.91l.47.93,0-1c0-.4.07-.81.12-1.23S397.77,534.91,397.8,534.48Z" transform="translate(-326.88 -520)"/><path class="cls-1" d="M389,545.79c-.37-1.29-.81-2.55-1.28-3.8s-1-2.48-1.52-3.7-1.13-2.42-1.78-3.58a19.11,19.11,0,0,0-2.23-3.3c.62,1.18,1.17,2.38,1.72,3.58l1.62,3.63c.55,1.21,1.09,2.42,1.66,3.61S388.3,544.63,389,545.79Z" transform="translate(-326.88 -520)"/><polygon class="cls-1" points="60.28 22.25 59.47 24.99 60.95 22.59 60.28 22.25"/><path class="cls-1" d="M388.5,533.76a7.49,7.49,0,0,0-.79,2.46l.51-.1c-.16-.32-.3-.63-.48-.94a9.18,9.18,0,0,0-.54-.89,8.14,8.14,0,0,0-.62-.83,4.64,4.64,0,0,0-.75-.72c.34.61.65,1.21,1,1.82l.47.91c.16.31.33.6.48.9l.47.93,0-1c0-.4.07-.82.12-1.23S388.47,534.2,388.5,533.76Z" transform="translate(-326.88 -520)"/><path class="cls-1" d="M379.89,544.82c-.37-1.29-.78-2.54-1.22-3.79s-.91-2.48-1.41-3.7-1-2.43-1.66-3.6a16.86,16.86,0,0,0-2.15-3.3c.61,1.17,1.12,2.37,1.63,3.58l1.5,3.63c.51,1.21,1,2.43,1.56,3.63S379.24,543.66,379.89,544.82Z" transform="translate(-326.88 -520)"/><polygon class="cls-1" points="51.26 21.02 50.18 23.62 51.89 21.43 51.26 21.02"/><path class="cls-1" d="M380,533.27a7.62,7.62,0,0,0-.64,1.11,6.52,6.52,0,0,0-.44,1.22l.51,0c-.11-.33-.22-.66-.35-1a10.38,10.38,0,0,0-.43-1,9.27,9.27,0,0,0-.51-.92,4.62,4.62,0,0,0-.65-.81c.26.65.49,1.29.72,1.94l.36,1c.11.33.25.64.36,1l.34,1,.17-1c.06-.39.17-.8.27-1.2S380,533.7,380,533.27Z" transform="translate(-326.88 -520)"/><path class="cls-1" d="M370.84,543.7c-.36-1.28-.77-2.54-1.21-3.79s-.91-2.47-1.41-3.7-1-2.42-1.66-3.59a16.64,16.64,0,0,0-2.15-3.31c.61,1.17,1.12,2.37,1.63,3.58l1.5,3.64c.51,1.21,1,2.42,1.56,3.62S370.2,542.55,370.84,543.7Z" transform="translate(-326.88 -520)"/><polygon class="cls-1" points="42.22 19.89 41.02 22.61 42.85 20.32 42.22 19.89"/><path class="cls-1" d="M371,532.15a7.62,7.62,0,0,0-.64,1.11,6.52,6.52,0,0,0-.44,1.22l.51,0c-.11-.34-.22-.67-.36-1a10.63,10.63,0,0,0-.93-1.87,4.35,4.35,0,0,0-.65-.82c.26.65.49,1.29.72,1.94l.36,1c.11.33.24.65.36,1l.34,1,.17-1c.06-.39.17-.8.27-1.2S370.91,532.58,371,532.15Z" transform="translate(-326.88 -520)"/><path class="cls-1" d="M361.68,542.88c-.36-1.28-.76-2.53-1.18-3.77s-.88-2.48-1.36-3.7-1-2.44-1.6-3.61a15.29,15.29,0,0,0-2.12-3.31c.61,1.17,1.11,2.37,1.6,3.57l1.44,3.65c.49,1.21,1,2.43,1.5,3.63S361,541.73,361.68,542.88Z" transform="translate(-326.88 -520)"/><polygon class="cls-1" points="33.05 19.07 31.86 21.79 33.68 19.5 33.05 19.07"/><path class="cls-1" d="M361.83,531.34a6.71,6.71,0,0,0-.64,1.1,7.1,7.1,0,0,0-.45,1.22l.51,0c-.11-.34-.21-.67-.35-1s-.27-.65-.42-1a10.19,10.19,0,0,0-.52-.91,4.69,4.69,0,0,0-.65-.82c.26.66.49,1.29.72,1.94l.36,1c.11.32.25.64.36,1l.35,1,.16-1c.07-.39.17-.79.28-1.2S361.74,531.76,361.83,531.34Z" transform="translate(-326.88 -520)"/><path class="cls-1" d="M352.59,541.34c-.37-1.29-.78-2.54-1.22-3.79s-.91-2.48-1.4-3.7-1.05-2.43-1.66-3.6a16.91,16.91,0,0,0-2.16-3.3c.61,1.17,1.12,2.37,1.64,3.58l1.5,3.63c.5,1.21,1,2.43,1.55,3.63S351.94,540.18,352.59,541.34Z" transform="translate(-326.88 -520)"/><polygon class="cls-1" points="23.96 17.53 22.77 20.25 24.59 17.95 23.96 17.53"/><path class="cls-1" d="M352.74,529.79a6.8,6.8,0,0,0-.64,1.11,5.9,5.9,0,0,0-.45,1.22l.51,0c-.11-.34-.22-.67-.35-1a10.38,10.38,0,0,0-.43-1,8.13,8.13,0,0,0-.51-.91,4.35,4.35,0,0,0-.65-.82c.26.65.49,1.29.72,1.94l.36,1c.11.33.25.64.36,1l.34,1,.17-1c.07-.39.17-.8.27-1.2S352.65,530.22,352.74,529.79Z" transform="translate(-326.88 -520)"/><path class="cls-1" d="M343.62,540.16c-.36-1.28-.78-2.54-1.21-3.78s-.91-2.48-1.41-3.71-1.05-2.42-1.66-3.59a16.68,16.68,0,0,0-2.16-3.31c.61,1.17,1.13,2.37,1.64,3.58l1.5,3.64c.51,1.21,1,2.42,1.55,3.62S343,539,343.62,540.16Z" transform="translate(-326.88 -520)"/><polygon class="cls-1" points="14.99 16.35 13.8 19.07 15.62 16.77 14.99 16.35"/><path class="cls-1" d="M343.77,528.61a6.8,6.8,0,0,0-.64,1.11,6.53,6.53,0,0,0-.45,1.22l.51,0c-.11-.34-.21-.67-.35-1s-.27-.65-.42-1a8.21,8.21,0,0,0-.52-.91,4.35,4.35,0,0,0-.65-.82c.26.65.49,1.29.73,1.94l.35,1c.11.33.25.65.36,1l.35,1,.16-1c.07-.39.18-.8.28-1.2S343.68,529,343.77,528.61Z" transform="translate(-326.88 -520)"/><path class="cls-1" d="M450,526.24a19.82,19.82,0,0,0-.6-2.13c-.12-.35-.24-.7-.39-1a4,4,0,0,0-.59-1,1,1,0,0,0-.29-.23.65.65,0,0,0-.21-.07h-.13a.41.41,0,0,0-.18.06,1.15,1.15,0,0,0-.28.23l-.19.24a7.1,7.1,0,0,0-.58,1,15.49,15.49,0,0,0-.82,2.08,41,41,0,0,0-1.58,8.7,86.38,86.38,0,0,0-.22,8.81q.1,4.41.53,8.79c-.14-2.93-.24-5.86-.23-8.79s.11-5.86.4-8.77a40.84,40.84,0,0,1,1.6-8.58,15.79,15.79,0,0,1,.81-2,6.13,6.13,0,0,1,.54-.9,1.6,1.6,0,0,1,.29-.32h0l.05,0a.3.3,0,0,1,.13.11,4,4,0,0,1,.55.86c.16.32.32.64.47,1C449.32,524.92,449.63,525.59,450,526.24Z" transform="translate(-326.88 -520)"/><path class="cls-1" d="M445.75,541.05c-.33,8.27.52,15.06,1.89,15.18s2.75-6.5,3.08-14.77-.85-15.05-2.22-15.17S446.09,532.78,445.75,541.05Z" transform="translate(-326.88 -520)"/><path class="cls-2" d="M447.7,556.42a.8.8,0,0,0,.48-.22c1.28-1.14,2.43-7.33,2.73-14.73.32-8.05-.8-15.23-2.39-15.36a.69.69,0,0,0-.54.2c-1.39,1.23-2.16,8.42-2.41,14.73-.3,7.35.32,15.23,2.05,15.37Zm.76-29.94h0c1.05.09,2.4,6.11,2.05,15-.29,7.19-1.41,13.4-2.61,14.46a.36.36,0,0,1-.28.12c-1.09-.09-2.06-6.27-1.71-15h0c.31-7.72,1.23-13.54,2.29-14.47A.37.37,0,0,1,448.46,526.48Z" transform="translate(-326.88 -520)"/><path class="cls-1" d="M448.33,531.78h0a5,5,0,0,0,3.41,1.43l9,.47a.81.81,0,0,1,.74,1,36.92,36.92,0,0,0-.53,14.6.78.78,0,0,1-.79.9l-8.92-.21a5.24,5.24,0,0,0-3.21.92h0Z" transform="translate(-326.88 -520)"/><path class="cls-2" d="M448.33,531.78a4.62,4.62,0,0,0,2.91,1.91c.24,0,.48.07.7.11l1.32.16c1.77.19,3.54.28,5.31.41l2.14.15,0,0v0h0l0,.07-.09.33c-.11.45-.21.89-.3,1.34a35.84,35.84,0,0,0-.47,10.87c.06.45.1.91.17,1.36l.11.67.05.31a.09.09,0,0,1,0,0,.1.1,0,0,1,.05,0h-1.63c-1.77,0-3.55,0-5.33,0-.44,0-.89,0-1.33.06l-.67,0a4.57,4.57,0,0,0-.73.1,4.46,4.46,0,0,0-2.43,1.38,6.51,6.51,0,0,1,2.52-.42c.21,0,.4,0,.61.06l.66.07c.44,0,.89.09,1.33.12,1.77.11,3.55.16,5.33.24l1.33,0,.34,0a1.75,1.75,0,0,0,.68-.13,1.68,1.68,0,0,0,.92-1,1.86,1.86,0,0,0,.07-.7l-.05-.36-.08-.64c-.07-.43-.1-.86-.14-1.3a37.45,37.45,0,0,1-.12-5.19c0-.87.09-1.73.19-2.59s.21-1.73.36-2.58c.07-.42.16-.85.25-1.27l.07-.31,0-.09,0-.17a1.93,1.93,0,0,0,0-.34,1.68,1.68,0,0,0-.64-1.18,1.56,1.56,0,0,0-.61-.29,1.26,1.26,0,0,0-.33,0h-.17l-.67,0-1.33,0c-1.78,0-3.56-.15-5.34-.14-.44,0-.89,0-1.33,0l-.63,0c-.2,0-.41,0-.61,0A5.85,5.85,0,0,1,448.33,531.78Z" transform="translate(-326.88 -520)"/><path class="cls-2" d="M738.92,529.25a6,6,0,0,0-3.51,3.08c-.84,1.7-.7,2.61-.9,2.62s-.3-1.78-1.76-2.31-7.43.43-10.6.94l0-.87,16.78-4.12Z" transform="translate(-326.88 -520)"/><path class="cls-2" d="M525.61,544.87c-4.72-.08-23.48,0-31.92-.14s-32.17-1.44-32.89,2.92a12.55,12.55,0,0,1-.21-5.75l44.86,1.66,20.11.2Z" transform="translate(-326.88 -520)"/><path class="cls-2" d="M448.09,541.21a13.92,13.92,0,0,1,.38-1.76l9.33.24a14.79,14.79,0,0,0-.15,1.52Z" transform="translate(-326.88 -520)"/><path class="cls-2" d="M447.88,542.77l9.76,0a22.07,22.07,0,0,0,.46,5.07c-2.67,0-8.75-.43-10.09,1.36A26.87,26.87,0,0,1,447.88,542.77Z" transform="translate(-326.88 -520)"/></svg>