<svg id="Layer_1" data-name="Layer 1" xmlns="http://www.w3.org/2000/svg" viewBox="0 0 809.52 153.92"><defs><style>.cls-1{fill:#86c240;}.cls-2{fill:#333;}.cls-3{fill:#62893c;}</style></defs><title>cut hilt green</title><path class="cls-1" d="M155,463h11.76v24l22.12-24h15.45l-23.49,24,24.7,34.32H190.19l-17.64-25.45-5.76,5.95v19.5H155Z" transform="translate(-135.24 -463.04)"/><path class="cls-1" d="M317.4,463h13.53l20.25,58.3h-13l-3.78-12H313.35l-3.88,12H297Zm-.79,36.27h14.66L324,476.37Z" transform="translate(-135.24 -463.04)"/><path class="cls-1" d="M483,463v10.32H465.83v48h-12v-48H436.58V463Z" transform="translate(-135.24 -463.04)"/><path class="cls-1" d="M589.21,463h13.53L623,521.34H610l-3.78-12H585.16l-3.88,12H568.77Zm-.79,36.27h14.66l-7.23-22.94Z" transform="translate(-135.24 -463.04)"/><path class="cls-1" d="M718.84,463h12.54l22.72,40.65V463h11.15v58.3h-12L730,480v41.37H718.84Z" transform="translate(-135.24 -463.04)"/><path class="cls-1" d="M881.6,463h13.53l20.25,58.3h-13l-3.77-12H877.56l-3.88,12H861.16Zm-.79,36.27h14.66l-7.23-22.94Z" transform="translate(-135.24 -463.04)"/><path class="cls-2" d="M361.66,568.23a.72.72,0,0,0-.14-.2h-5.36v31.18H360a2.89,2.89,0,0,0,1-1.34.25.25,0,0,0,0-.11,3.07,3.07,0,0,0,.14-1.27l-.1-.64,0-.38H359.9v-23.7h1.94c0-.17.06-.34.09-.51l.14-.56,0-.17.05-.3a3.31,3.31,0,0,0,0-.63A2.78,2.78,0,0,0,361.66,568.23Z" transform="translate(-135.24 -463.04)"/><path class="cls-2" d="M354.3,547.77h0Z" transform="translate(-135.24 -463.04)"/><path class="cls-3" d="M361.78,580.48c-.14,4.21-.43,8.26-.87,12-.11,1-.24,2-.38,3-.11.82-.23,1.61-.36,2.39-.06.38-.12.76-.19,1.12l0,.23C358.07,609.91,355,617,351.8,617s-5.65-6.91-6.89-17.15a132.54,132.54,0,0,1-.76-19.73c.14-4.23.43-8.28.87-12.05h14.57l2.06,0v0c0,.06,0,.13,0,.2.06,1.16.11,2.34.14,3.54C361.88,574.57,361.87,577.48,361.78,580.48Z" transform="translate(-135.24 -463.04)"/><rect class="cls-3" y="104.98" width="218.91" height="31.78" rx="7.06" ry="7.06"/><path class="cls-3" d="M347.71,568h.87c0,.35-.07.72-.11,1.08-.52,5.27-.72,10.57-.72,15.88,0,4.94.13,9.88.36,14.82l.06,1.11c0-.37-.07-.75-.1-1.11q-.69-7.39-.87-14.82a157.49,157.49,0,0,1,.41-16C347.64,568.69,347.68,568.36,347.71,568Z" transform="translate(-135.24 -463.04)"/><path class="cls-2" d="M354.33,547.75l0,0h0Z" transform="translate(-135.24 -463.04)"/><path class="cls-1" d="M359.54,582.48c-.13,3.55-.38,6.92-.71,10q-.31,2.85-.69,5.33c-.07.39-.12.76-.19,1.13a2.17,2.17,0,0,0,0,.25c-1.08,6.21-2.52,10.12-4,10s-2.4-3.75-3-9.41a129.55,129.55,0,0,1-.41-18.08c.2-5,.55-9.7,1-13.7h7.69v0A115.6,115.6,0,0,1,359.54,582.48Z" transform="translate(-135.24 -463.04)"/><path class="cls-1" d="M359.9,573.09c-.06-1.72-.15-3.38-.29-4.93,0,0,0-.09,0-.13v0h-.66a101.08,101.08,0,0,1,.37,10.9q0,1.5-.06,3.09c0,.15,0,.3,0,.45,0,.8-.08,1.61-.11,2.39-.14,2.68-.35,5.24-.63,7.64-.07.74-.16,1.46-.25,2.17-.11,1-.24,1.89-.37,2.77,0,.14-.05.26-.07.39s0,.24-.05.36-.09.44-.13.67a.25.25,0,0,0,0,.09,2,2,0,0,1-.05.26c-.85,4.95-1.92,8.46-3.06,9.46a.87.87,0,0,1-.5.22c-1.09-.1-2.1-3.47-2.69-9.08a128.91,128.91,0,0,1-.41-18.07c.2-5.12.56-9.79,1-13.71h-.68c-.51,4.3-.83,9.1-1,13.68a135.52,135.52,0,0,0,.39,18.1c.61,5.64,1.69,9.63,3.33,9.75h.13a1.37,1.37,0,0,0,.88-.39c1.24-1.1,2.41-4.76,3.31-10,0-.08,0-.16.05-.25l0-.16a7.74,7.74,0,0,1,.13-.77l0-.19.09-.65c.12-.86.26-1.74.37-2.67.08-.66.16-1.34.23-2,.26-2.4.47-5,.61-7.64,0-.78.08-1.57.11-2.37a1.69,1.69,0,0,1,0-.23,2.09,2.09,0,0,0,0-.24c0-1,.06-2.07.06-3.08C360,576.93,360,575,359.9,573.09Z" transform="translate(-135.24 -463.04)"/><path class="cls-3" d="M944.67,568.11l-1,1.12L941,572.1c-.24.25-2.5,2.75-6.21,6.2a121.62,121.62,0,0,1-23.08,17.23,70.71,70.71,0,0,1-7.64,3.7l-.1,0h-1.23l0,.05h-1.11s-482.17-.87-540.55-1.45h-.84l-1.69,0h-.69l-1.63,0-.72,0c-.15,0-.22,0-.22,0a2.82,2.82,0,0,0,.12-.77h0a2,2,0,0,0,0-.49l-.09-.64-.05-.37-.09-.81c-.1-.71-.17-1.43-.25-2.16,0,0,0-.11,0-.17a72.27,72.27,0,0,1-.2-9.42c.05-1.57-.1-3.2.07-4.74s.24-3.13.51-4.69c.09-.48.64-3.51.94-4.81a3.93,3.93,0,0,1,.16-.59s.71-.05,2-.06h1.25l2.06,0c56.1-.59,536.48-1.35,536.48-1.35H899l10.28-.06,27.37,0Z" transform="translate(-135.24 -463.04)"/><path class="cls-1" d="M944.76,569.23l-3.7,4c-.24.25-2.5,2.75-6.2,6.21a122.16,122.16,0,0,1-23.1,17.22,68.94,68.94,0,0,1-7.64,3.7l-.09,0H902.8l0,.05h-1.1s-546.54-1-546.36-1.56a3.3,3.3,0,0,0,.14-1.28l-.1-.63,0-.37-.1-.81c-.15-1-.2-2.14-.39-3.22l.07-.08,546.79.11h1.1l0-.06H904l.09,0a68.94,68.94,0,0,0,7.64-3.7,121.73,121.73,0,0,0,23.1-17.22c.91-.84,1.73-1.65,2.46-2.36Z" transform="translate(-135.24 -463.04)"/><rect class="cls-1" x="15.65" y="112.79" width="2.8" height="15.57" rx="0.33" ry="0.33"/><rect class="cls-1" x="38.07" y="112.79" width="2.8" height="15.57" rx="0.33" ry="0.33"/><rect class="cls-1" x="60.49" y="112.79" width="2.8" height="15.57" rx="0.33" ry="0.33"/><rect class="cls-1" x="82.91" y="112.79" width="2.8" height="15.57" rx="0.33" ry="0.33"/><rect class="cls-1" x="105.33" y="112.79" width="2.8" height="15.57" rx="0.33" ry="0.33"/><rect class="cls-1" x="127.75" y="112.79" width="2.8" height="15.57" rx="0.33" ry="0.33"/><rect class="cls-1" x="150.17" y="112.79" width="2.8" height="15.57" rx="0.33" ry="0.33"/><rect class="cls-1" x="172.59" y="112.79" width="2.8" height="15.57" rx="0.33" ry="0.33"/><rect class="cls-1" x="195.01" y="112.79" width="2.8" height="15.57" rx="0.33" ry="0.33"/></svg>